<svg xmlns="http://www.w3.org/2000/svg" width="1000" height="700" viewBox="0 0 1000 700" fill="none" stroke="#789b83" stroke-width="1">
<path d="M-80 520C120 170 200 670 470 300S810 200 1090-50M-80 540C120 190 210 690 480 320S820 220 1090-30M-80 560C120 210 220 710 490 340S830 240 1090-10M-80 580C120 230 230 730 500 360S840 260 1090 10M-80 600C120 250 240 750 510 380S850 280 1090 30M-80 620C120 270 250 770 520 400S860 300 1090 50M-80 640C120 290 260 790 530 420S870 320 1090 70M-80 660C120 310 270 810 540 440S880 340 1090 90M-80 680C120 330 280 830 550 460S890 360 1090 110M-80 700C120 350 290 850 560 480S900 380 1090 130"/>
<circle cx="130" cy="140" r="65"/><circle cx="130" cy="140" r="85"/><circle cx="130" cy="140" r="105"/>
</svg>
